# xmcd
#
# Track frame offsets: 
#        150
#        22457
#        54942
#        86752
#
# Disc length: 2255 seconds
#
# Revision: 0
# Processed by: cddbd v1.4PL0 Copyright (c) Steve Scherf et al.
# Submitted via: ExactAudioCopy v0.90b4
#
DISCID=2f08cd04
DTITLE=Indigenous - Things We Do On Video (Bonus CD)
DYEAR=1998
DGENRE=Blues
TTITLE0=Things We Do
TTITLE1=Eagle Heart
TTITLE2=Tell Me
TTITLE3=Data
EXTD=
EXTT0=
EXTT1=
EXTT2=
EXTT3=
PLAYORDER=
